<mxfile host="app.diagrams.net" agent="Mozilla/5.0 (Macintosh; Intel Mac OS X 10_15_7) AppleWebKit/605.1.15 (KHTML, like Gecko) Version/17.4.1 Safari/605.1.15" version="24.7.12">
  <diagram name="Page-1" id="58cdce13-f638-feb5-8d6f-7d28b1aa9fa0">
    <mxGraphModel dx="1710" dy="1905" grid="1" gridSize="10" guides="1" tooltips="1" connect="1" arrows="1" fold="1" page="1" pageScale="1" pageWidth="1100" pageHeight="850" background="none" math="0" shadow="0">
      <root>
        <mxCell id="0" />
        <mxCell id="1" parent="0" />
        <mxCell id="DqPGgn72jeOy-Wrfr4Ys-19" style="edgeStyle=orthogonalEdgeStyle;rounded=0;orthogonalLoop=1;jettySize=auto;html=1;exitX=1;exitY=0.25;exitDx=0;exitDy=0;" edge="1" parent="1" source="2a3bc250acf0617d-7">
          <mxGeometry relative="1" as="geometry">
            <mxPoint x="640" y="97" as="targetPoint" />
          </mxGeometry>
        </mxCell>
        <mxCell id="2a3bc250acf0617d-7" value="&lt;blockquote style=&quot;margin: 0 0 0 40px; border: none; padding: 0px;&quot;&gt;GroundedState&lt;/blockquote&gt;" style="swimlane;whiteSpace=wrap;html=1;rounded=1;shadow=0;comic=0;labelBackgroundColor=none;strokeWidth=1;fontFamily=Verdana;fontSize=12;align=center;fillColor=#dae8fc;strokeColor=#6c8ebf;" parent="1" vertex="1">
          <mxGeometry x="60" y="50" width="370" height="190" as="geometry" />
        </mxCell>
        <mxCell id="DqPGgn72jeOy-Wrfr4Ys-1" value="Idle" style="rounded=0;whiteSpace=wrap;html=1;" vertex="1" parent="2a3bc250acf0617d-7">
          <mxGeometry x="30" y="85" width="80" height="50" as="geometry" />
        </mxCell>
        <mxCell id="DqPGgn72jeOy-Wrfr4Ys-2" value="Move" style="rounded=0;whiteSpace=wrap;html=1;" vertex="1" parent="2a3bc250acf0617d-7">
          <mxGeometry x="260" y="85" width="80" height="50" as="geometry" />
        </mxCell>
        <mxCell id="DqPGgn72jeOy-Wrfr4Ys-3" value="" style="endArrow=classic;html=1;rounded=0;exitX=1;exitY=0.25;exitDx=0;exitDy=0;entryX=0;entryY=0.25;entryDx=0;entryDy=0;" edge="1" parent="2a3bc250acf0617d-7" source="DqPGgn72jeOy-Wrfr4Ys-1" target="DqPGgn72jeOy-Wrfr4Ys-2">
          <mxGeometry width="50" height="50" relative="1" as="geometry">
            <mxPoint x="500" y="260" as="sourcePoint" />
            <mxPoint x="550" y="210" as="targetPoint" />
          </mxGeometry>
        </mxCell>
        <mxCell id="DqPGgn72jeOy-Wrfr4Ys-4" value="" style="endArrow=classic;html=1;rounded=0;exitX=0;exitY=0.75;exitDx=0;exitDy=0;entryX=1;entryY=0.75;entryDx=0;entryDy=0;" edge="1" parent="2a3bc250acf0617d-7" source="DqPGgn72jeOy-Wrfr4Ys-2" target="DqPGgn72jeOy-Wrfr4Ys-1">
          <mxGeometry width="50" height="50" relative="1" as="geometry">
            <mxPoint x="120" y="108" as="sourcePoint" />
            <mxPoint x="270" y="108" as="targetPoint" />
          </mxGeometry>
        </mxCell>
        <mxCell id="DqPGgn72jeOy-Wrfr4Ys-6" value="xInput != 0" style="text;html=1;align=center;verticalAlign=middle;whiteSpace=wrap;rounded=0;" vertex="1" parent="2a3bc250acf0617d-7">
          <mxGeometry x="155" y="70" width="60" height="30" as="geometry" />
        </mxCell>
        <mxCell id="DqPGgn72jeOy-Wrfr4Ys-7" value="xInput == 0" style="text;html=1;align=center;verticalAlign=middle;whiteSpace=wrap;rounded=0;" vertex="1" parent="2a3bc250acf0617d-7">
          <mxGeometry x="155" y="120" width="65" height="30" as="geometry" />
        </mxCell>
        <mxCell id="DqPGgn72jeOy-Wrfr4Ys-8" value="&lt;blockquote style=&quot;margin: 0 0 0 40px; border: none; padding: 0px;&quot;&gt;AttackState&lt;/blockquote&gt;" style="swimlane;whiteSpace=wrap;html=1;rounded=1;shadow=0;comic=0;labelBackgroundColor=none;strokeWidth=1;fontFamily=Verdana;fontSize=12;align=center;fillColor=#dae8fc;strokeColor=#6c8ebf;" vertex="1" parent="1">
          <mxGeometry x="60" y="320" width="370" height="190" as="geometry" />
        </mxCell>
        <mxCell id="DqPGgn72jeOy-Wrfr4Ys-15" value="" style="endArrow=classic;html=1;rounded=0;exitX=0.25;exitY=1;exitDx=0;exitDy=0;entryX=0.25;entryY=0;entryDx=0;entryDy=0;" edge="1" parent="1" source="2a3bc250acf0617d-7" target="DqPGgn72jeOy-Wrfr4Ys-8">
          <mxGeometry width="50" height="50" relative="1" as="geometry">
            <mxPoint x="420" y="260" as="sourcePoint" />
            <mxPoint x="470" y="210" as="targetPoint" />
          </mxGeometry>
        </mxCell>
        <mxCell id="DqPGgn72jeOy-Wrfr4Ys-16" value="" style="endArrow=classic;html=1;rounded=0;exitX=0.75;exitY=0;exitDx=0;exitDy=0;entryX=0.75;entryY=1;entryDx=0;entryDy=0;" edge="1" parent="1" source="DqPGgn72jeOy-Wrfr4Ys-8" target="2a3bc250acf0617d-7">
          <mxGeometry width="50" height="50" relative="1" as="geometry">
            <mxPoint x="163" y="250" as="sourcePoint" />
            <mxPoint x="163" y="330" as="targetPoint" />
          </mxGeometry>
        </mxCell>
        <mxCell id="DqPGgn72jeOy-Wrfr4Ys-17" value="&lt;span style=&quot;caret-color: rgba(0, 0, 0, 0); color: rgba(0, 0, 0, 0); font-family: monospace; font-size: 0px; text-align: start; white-space: nowrap;&quot;&gt;%3CmxGraphModel%3E%3Croot%3E%3CmxCell%20id%3D%220%22%2F%3E%3CmxCell%20id%3D%221%22%20parent%3D%220%22%2F%3E%3CmxCell%20id%3D%222%22%20value%3D%22xInput%20!%3D%200%22%20style%3D%22text%3Bhtml%3D1%3Balign%3Dcenter%3BverticalAlign%3Dmiddle%3BwhiteSpace%3Dwrap%3Brounded%3D0%3B%22%20vertex%3D%221%22%20parent%3D%221%22%3E%3CmxGeometry%20x%3D%22215%22%20y%3D%22120%22%20width%3D%2260%22%20height%3D%2230%22%20as%3D%22geometry%22%2F%3E%3C%2FmxCell%3E%3C%2Froot%3E%3C%2FmxGraphModel%3E&lt;/span&gt;Attack Input" style="text;html=1;align=center;verticalAlign=middle;whiteSpace=wrap;rounded=0;" vertex="1" parent="1">
          <mxGeometry x="90" y="270" width="60" height="30" as="geometry" />
        </mxCell>
        <mxCell id="DqPGgn72jeOy-Wrfr4Ys-18" value="&lt;span style=&quot;white-space: nowrap; caret-color: rgba(0, 0, 0, 0); color: rgba(0, 0, 0, 0); font-family: monospace; font-size: 0px; text-align: start;&quot;&gt;%3CmxGraphModel%3E%3Croot%3E%3CmxCell%20id%3D%220%22%2F%3E%3CmxCell%20id%3D%221%22%20parent%3D%220%22%2F%3E%3CmxCell%20id%3D%222%22%20value%3D%22xInput%20!%3D%200%22%20style%3D%22text%3Bhtml%3D1%3Balign%3Dcenter%3BverticalAlign%3Dmiddle%3BwhiteSpace%3Dwrap%3Brounded%3D0%3B%22%20vertex%3D%221%22%20parent%3D%221%22%3E%3CmxGeometry%20x%3D%22215%22%20y%3D%22120%22%20width%3D%2260%22%20height%3D%2230%22%20as%3D%22geometry%22%2F%3E%3C%2FmxCell%3E%3C%2Froot%3E%3C%2FmxGraphModel%3E&lt;/span&gt;Attack over" style="text;html=1;align=center;verticalAlign=middle;whiteSpace=wrap;rounded=0;" vertex="1" parent="1">
          <mxGeometry x="340" y="270" width="60" height="30" as="geometry" />
        </mxCell>
        <mxCell id="DqPGgn72jeOy-Wrfr4Ys-20" value="&lt;blockquote style=&quot;margin: 0 0 0 40px; border: none; padding: 0px;&quot;&gt;AirState&lt;/blockquote&gt;" style="swimlane;whiteSpace=wrap;html=1;rounded=1;shadow=0;comic=0;labelBackgroundColor=none;strokeWidth=1;fontFamily=Verdana;fontSize=12;align=center;fillColor=#dae8fc;strokeColor=#6c8ebf;" vertex="1" parent="1">
          <mxGeometry x="640" y="40" width="150" height="190" as="geometry" />
        </mxCell>
        <mxCell id="DqPGgn72jeOy-Wrfr4Ys-33" style="edgeStyle=orthogonalEdgeStyle;rounded=0;orthogonalLoop=1;jettySize=auto;html=1;exitX=1;exitY=0.5;exitDx=0;exitDy=0;entryX=0;entryY=0.5;entryDx=0;entryDy=0;" edge="1" parent="1" source="DqPGgn72jeOy-Wrfr4Ys-21" target="DqPGgn72jeOy-Wrfr4Ys-22">
          <mxGeometry relative="1" as="geometry" />
        </mxCell>
        <mxCell id="DqPGgn72jeOy-Wrfr4Ys-37" style="edgeStyle=orthogonalEdgeStyle;rounded=0;orthogonalLoop=1;jettySize=auto;html=1;exitX=0.5;exitY=1;exitDx=0;exitDy=0;entryX=1;entryY=1;entryDx=0;entryDy=0;" edge="1" parent="1" source="DqPGgn72jeOy-Wrfr4Ys-21" target="2a3bc250acf0617d-7">
          <mxGeometry relative="1" as="geometry" />
        </mxCell>
        <mxCell id="DqPGgn72jeOy-Wrfr4Ys-21" value="&lt;blockquote style=&quot;margin: 0 0 0 40px; border: none; padding: 0px;&quot;&gt;&lt;span style=&quot;caret-color: rgba(0, 0, 0, 0); color: rgba(0, 0, 0, 0); font-family: monospace; font-size: 0px; font-weight: 400; text-align: start; white-space: nowrap;&quot;&gt;%3CmxGraphModel%3E%3Croot%3E%3CmxCell%20id%3D%220%22%2F%3E%3CmxCell%20id%3D%221%22%20parent%3D%220%22%2F%3E%3CmxCell%20id%3D%222%22%20value%3D%22%26lt%3Bblockquote%20style%3D%26quot%3Bmargin%3A%200%200%200%2040px%3B%20border%3A%20none%3B%20padding%3A%200px%3B%26quot%3B%26gt%3BAirState%26lt%3B%2Fblockquote%26gt%3B%22%20style%3D%22swimlane%3BwhiteSpace%3Dwrap%3Bhtml%3D1%3Brounded%3D1%3Bshadow%3D0%3Bcomic%3D0%3BlabelBackgroundColor%3Dnone%3BstrokeWidth%3D1%3BfontFamily%3DVerdana%3BfontSize%3D12%3Balign%3Dcenter%3BfillColor%3D%23dae8fc%3BstrokeColor%3D%236c8ebf%3B%22%20vertex%3D%221%22%20parent%3D%221%22%3E%3CmxGeometry%20x%3D%22640%22%20y%3D%2240%22%20width%3D%22150%22%20height%3D%22190%22%20as%3D%22geometry%22%2F%3E%3C%2FmxCell%3E%3C%2Froot%3E%3C%2FmxGraphModel%3E&lt;/span&gt;WallState&lt;span style=&quot;caret-color: rgba(0, 0, 0, 0); color: rgba(0, 0, 0, 0); font-family: monospace; font-size: 0px; font-weight: 400; text-align: start; white-space: nowrap;&quot;&gt;%3CmxGraphModel%3E%3Croot%3E%3CmxCell%20id%3D%220%22%2F%3E%3CmxCell%20id%3D%221%22%20parent%3D%220%22%2F%3E%3CmxCell%20id%3D%222%22%20value%3D%22%26lt%3Bblockquote%20style%3D%26quot%3Bmargin%3A%200%200%200%2040px%3B%20border%3A%20none%3B%20padding%3A%200px%3B%26quot%3B%26gt%3BAirState%26lt%3B%2Fblockquote%26gt%3B%22%20style%3D%22swimlane%3BwhiteSpace%3Dwrap%3Bhtml%3D1%3Brounded%3D1%3Bshadow%3D0%3Bcomic%3D0%3BlabelBackgroundColor%3Dnone%3BstrokeWidth%3D1%3BfontFamily%3DVerdana%3BfontSize%3D12%3Balign%3Dcenter%3BfillColor%3D%23dae8fc%3BstrokeColor%3D%236c8ebf%3B%22%20vertex%3D%221%22%20parent%3D%221%22%3E%3CmxGeometry%20x%3D%22640%22%20y%3D%2240%22%20width%3D%22150%22%20height%3D%22190%22%20as%3D%22geometry%22%2F%3E%3C%2FmxCell%3E%3C%2Froot%3E%3C%2FmxGraphModel%3E&lt;/span&gt;&lt;/blockquote&gt;" style="swimlane;whiteSpace=wrap;html=1;rounded=1;shadow=0;comic=0;labelBackgroundColor=none;strokeWidth=1;fontFamily=Verdana;fontSize=12;align=center;fillColor=#dae8fc;strokeColor=#6c8ebf;arcSize=0;" vertex="1" parent="1">
          <mxGeometry x="890" y="40" width="150" height="190" as="geometry" />
        </mxCell>
        <mxCell id="DqPGgn72jeOy-Wrfr4Ys-34" style="edgeStyle=orthogonalEdgeStyle;rounded=0;orthogonalLoop=1;jettySize=auto;html=1;exitX=0.5;exitY=0;exitDx=0;exitDy=0;entryX=0.5;entryY=0;entryDx=0;entryDy=0;" edge="1" parent="1" source="DqPGgn72jeOy-Wrfr4Ys-22" target="DqPGgn72jeOy-Wrfr4Ys-20">
          <mxGeometry relative="1" as="geometry" />
        </mxCell>
        <mxCell id="DqPGgn72jeOy-Wrfr4Ys-22" value="&lt;blockquote style=&quot;margin: 0 0 0 40px; border: none; padding: 0px;&quot;&gt;&lt;span style=&quot;caret-color: rgba(0, 0, 0, 0); color: rgba(0, 0, 0, 0); font-family: monospace; font-size: 0px; font-weight: 400; text-align: start; white-space: nowrap;&quot;&gt;%3CmxGraphModel%3E%3Croot%3E%3CmxCell%20id%3D%220%22%2F%3E%3CmxCell%20id%3D%221%22%20parent%3D%220%22%2F%3E%3CmxCell%20id%3D%222%22%20value%3D%22%26lt%3Bblockquote%20style%3D%26quot%3Bmargin%3A%200%200%200%2040px%3B%20border%3A%20none%3B%20padding%3A%200px%3B%26quot%3B%26gt%3BAirState%26lt%3B%2Fblockquote%26gt%3B%22%20style%3D%22swimlane%3BwhiteSpace%3Dwrap%3Bhtml%3D1%3Brounded%3D1%3Bshadow%3D0%3Bcomic%3D0%3BlabelBackgroundColor%3Dnone%3BstrokeWidth%3D1%3BfontFamily%3DVerdana%3BfontSize%3D12%3Balign%3Dcenter%3BfillColor%3D%23dae8fc%3BstrokeColor%3D%236c8ebf%3B%22%20vertex%3D%221%22%20parent%3D%221%22%3E%3CmxGeometry%20x%3D%22640%22%20y%3D%2240%22%20width%3D%22150%22%20height%3D%22190%22%20as%3D%22geometry%22%2F%3E%3C%2FmxCell%3E%3C%2Froot%3E%3C%2FmxGraphModel%3E&lt;/span&gt;WallState&lt;span style=&quot;caret-color: rgba(0, 0, 0, 0); color: rgba(0, 0, 0, 0); font-family: monospace; font-size: 0px; font-weight: 400; text-align: start; white-space: nowrap;&quot;&gt;%3CmxGraphModel%3E%3Croot%3E%3CmxCell%20id%3D%220%22%2F%3E%3CmxCell%20id%3D%221%22%20parent%3D%220%22%2F%3E%3CmxCell%20id%3D%222%22%20value%3D%22%26lt%3Bblockquote%20style%3D%26quot%3Bmargin%3A%200%200%200%2040px%3B%20border%3A%20none%3B%20padding%3A%200px%3B%26quot%3B%26gt%3BAirState%26lt%3B%2Fblockquote%26gt%3B%22%20style%3D%22swimlane%3BwhiteSpace%3Dwrap%3Bhtml%3D1%3Brounded%3D1%3Bshadow%3D0%3Bcomic%3D0%3BlabelBackgroundColor%3Dnone%3BstrokeWidth%3D1%3BfontFamily%3DVerdana%3BfontSize%3D12%3Balign%3Dcenter%3BfillColor%3D%23dae8fc%3BstrokeColor%3D%236c8ebf%3B%22%20vertex%3D%221%22%20parent%3D%221%22%3E%3CmxGeometry%20x%3D%22640%22%20y%3D%2240%22%20width%3D%22150%22%20height%3D%22190%22%20as%3D%22geometry%22%2F%3E%3C%2FmxCell%3E%3C%2Froot%3E%3C%2FmxGraphModel%3E&lt;/span&gt;&lt;/blockquote&gt;" style="swimlane;whiteSpace=wrap;html=1;rounded=1;shadow=0;comic=0;labelBackgroundColor=none;strokeWidth=1;fontFamily=Verdana;fontSize=12;align=center;fillColor=#dae8fc;strokeColor=#6c8ebf;arcSize=0;" vertex="1" parent="1">
          <mxGeometry x="1140" y="40" width="150" height="190" as="geometry" />
        </mxCell>
        <mxCell id="DqPGgn72jeOy-Wrfr4Ys-24" value="!isGrounded" style="text;html=1;align=center;verticalAlign=middle;whiteSpace=wrap;rounded=0;" vertex="1" parent="1">
          <mxGeometry x="510" y="70" width="60" height="30" as="geometry" />
        </mxCell>
        <mxCell id="DqPGgn72jeOy-Wrfr4Ys-25" style="edgeStyle=orthogonalEdgeStyle;rounded=0;orthogonalLoop=1;jettySize=auto;html=1;exitX=0;exitY=0.75;exitDx=0;exitDy=0;" edge="1" parent="1" source="DqPGgn72jeOy-Wrfr4Ys-20">
          <mxGeometry relative="1" as="geometry">
            <mxPoint x="430" y="183" as="targetPoint" />
            <mxPoint x="440" y="108" as="sourcePoint" />
          </mxGeometry>
        </mxCell>
        <mxCell id="DqPGgn72jeOy-Wrfr4Ys-26" value="isGrounded" style="text;html=1;align=center;verticalAlign=middle;whiteSpace=wrap;rounded=0;" vertex="1" parent="1">
          <mxGeometry x="510" y="160" width="60" height="30" as="geometry" />
        </mxCell>
        <mxCell id="DqPGgn72jeOy-Wrfr4Ys-27" style="edgeStyle=orthogonalEdgeStyle;rounded=0;orthogonalLoop=1;jettySize=auto;html=1;exitX=1;exitY=0.25;exitDx=0;exitDy=0;" edge="1" parent="1">
          <mxGeometry relative="1" as="geometry">
            <mxPoint x="890" y="101" as="targetPoint" />
            <mxPoint x="790" y="101" as="sourcePoint" />
          </mxGeometry>
        </mxCell>
        <mxCell id="DqPGgn72jeOy-Wrfr4Ys-30" value="wallDetected" style="text;html=1;align=center;verticalAlign=middle;whiteSpace=wrap;rounded=0;" vertex="1" parent="1">
          <mxGeometry x="810" y="70" width="60" height="30" as="geometry" />
        </mxCell>
        <mxCell id="DqPGgn72jeOy-Wrfr4Ys-31" value="!wallDetected" style="text;html=1;align=center;verticalAlign=middle;whiteSpace=wrap;rounded=0;" vertex="1" parent="1">
          <mxGeometry x="810" y="160" width="60" height="30" as="geometry" />
        </mxCell>
        <mxCell id="DqPGgn72jeOy-Wrfr4Ys-32" style="edgeStyle=orthogonalEdgeStyle;rounded=0;orthogonalLoop=1;jettySize=auto;html=1;exitX=0;exitY=0.75;exitDx=0;exitDy=0;entryX=1;entryY=0.75;entryDx=0;entryDy=0;" edge="1" parent="1" source="DqPGgn72jeOy-Wrfr4Ys-21" target="DqPGgn72jeOy-Wrfr4Ys-20">
          <mxGeometry relative="1" as="geometry">
            <mxPoint x="800" y="183" as="targetPoint" />
            <mxPoint x="800" y="111" as="sourcePoint" />
          </mxGeometry>
        </mxCell>
        <mxCell id="DqPGgn72jeOy-Wrfr4Ys-35" value="wallJumpOver" style="text;html=1;align=center;verticalAlign=middle;whiteSpace=wrap;rounded=0;" vertex="1" parent="1">
          <mxGeometry x="930" y="-20" width="60" height="30" as="geometry" />
        </mxCell>
        <mxCell id="DqPGgn72jeOy-Wrfr4Ys-36" value="JumpInput" style="text;html=1;align=center;verticalAlign=middle;whiteSpace=wrap;rounded=0;" vertex="1" parent="1">
          <mxGeometry x="1060" y="100" width="60" height="30" as="geometry" />
        </mxCell>
        <mxCell id="DqPGgn72jeOy-Wrfr4Ys-38" value="isGrounded" style="text;html=1;align=center;verticalAlign=middle;whiteSpace=wrap;rounded=0;" vertex="1" parent="1">
          <mxGeometry x="660" y="260" width="60" height="30" as="geometry" />
        </mxCell>
      </root>
    </mxGraphModel>
  </diagram>
</mxfile>
